<svg width="58" height="61" viewBox="0 0 58 61" fill="none" xmlns="http://www.w3.org/2000/svg">
<g clip-path="url(#clip0_7_2385)">
<path d="M57.7601 29.6598C49.3853 21.9784 40.5437 15.6307 31.2354 10.6165C30.9687 10.4831 30.702 10.4631 30.4353 10.5564C30.1686 10.6498 29.9686 10.8298 29.8352 11.0965L29.7152 11.1365C29.4218 11.4033 28.9951 11.8167 28.435 12.3768C27.9549 12.8835 27.5815 13.2569 27.3148 13.497C26.888 13.8704 26.4879 14.1771 26.1145 14.4171C25.9278 14.5238 25.8145 14.6772 25.7745 14.8772C25.7345 15.0772 25.7678 15.2706 25.8745 15.4573L26.2346 16.1774C26.8213 17.3776 27.2881 18.2578 27.6348 18.8179C26.1679 18.5512 24.5143 18.2978 22.6739 18.0578C21.5538 17.8977 19.8735 17.691 17.6331 17.4376C15.3927 17.1843 13.7124 16.9909 12.5922 16.8575C10.7519 16.5908 9.09825 16.3241 7.63132 16.0574C7.36461 16.0041 7.11123 16.0374 6.87119 16.1574C6.63115 16.2774 6.45779 16.4708 6.3511 16.7375C4.59079 17.1376 3.25723 18.1244 2.3504 19.698C1.60361 20.9516 1.11019 22.6319 0.870146 24.7389C0.736789 25.9658 0.670111 27.7794 0.670111 30.1799V32.1402C0.643439 34.594 0.683446 36.4476 0.790132 37.7012C0.95016 39.8082 1.29689 41.5819 1.83031 43.0221C2.25705 44.089 3.33724 45.0491 5.07088 45.9026C6.21774 46.4627 7.61799 46.9428 9.27161 47.3429C9.45831 47.3962 9.64501 47.3695 9.83171 47.2628H9.91172C12.8456 46.356 17.2197 44.9824 23.034 43.1421L27.5148 41.7419C26.7947 43.4755 26.3012 45.6359 26.0345 48.223C26.0079 48.3564 26.0412 48.4831 26.1346 48.6031C26.2279 48.7231 26.3279 48.8231 26.4346 48.9031C27.2614 49.4632 27.9815 49.8633 28.595 50.1033C29.4485 50.4234 30.2353 50.5167 30.9554 50.3834C31.0087 50.3834 31.0621 50.3567 31.1154 50.3034C31.2754 50.4367 31.4555 50.5101 31.6555 50.5234C31.8555 50.5367 32.0489 50.4901 32.2356 50.3834C36.6097 47.5829 40.9838 44.4757 45.3579 41.0618C49.3853 37.9679 53.5193 34.5406 57.7601 30.78C57.9201 30.6466 57.9934 30.4599 57.9801 30.2199C57.9668 29.9798 57.8934 29.7931 57.7601 29.6598ZM2.55044 25.7391C3.21722 25.1257 3.77732 24.6456 4.23073 24.2988C4.87084 23.8188 5.51095 23.4187 6.15107 23.0986C6.31109 23.0186 6.39111 22.8919 6.39111 22.7186C6.39111 22.5452 6.32443 22.3985 6.19107 22.2785C6.05772 22.1585 5.91102 22.1251 5.751 22.1785C4.73749 22.5252 3.79065 23.0186 2.9105 23.6587C3.23056 22.4318 3.71064 21.3917 4.35075 20.5382C5.04421 19.5513 5.95103 18.7779 7.07123 18.2178C7.23125 18.2711 7.4713 18.3245 7.79135 18.3778C7.658 20.9916 7.59132 23.3253 7.59132 25.379L7.03122 25.7791C6.1244 26.4192 5.47095 26.8993 5.07088 27.2193L4.43077 27.6994C3.49727 28.3929 2.84382 28.953 2.47042 29.3797C2.41708 28.1528 2.44375 26.926 2.55044 25.6991V25.7391ZM2.55044 29.8198C2.92384 29.6864 3.32391 29.4997 3.75065 29.2597C4.01736 29.0997 4.39076 28.8463 4.87084 28.4996L5.55096 28.0195C6.27109 27.5127 6.96454 26.9526 7.63132 26.3392C7.63132 27.006 7.658 27.9928 7.71134 29.2997V29.4197C6.99121 29.9265 6.20441 30.5399 5.35093 31.2601C4.84417 31.7135 4.09738 32.3802 3.11054 33.2604L2.67046 33.6605L2.59045 31.8202C2.5371 30.94 2.4971 30.2732 2.47042 29.8198C2.4971 29.8465 2.52377 29.8465 2.55044 29.8198ZM2.67046 34.9007C2.69713 34.9007 2.7238 34.8874 2.75047 34.8607L3.75065 34.0605C5.5643 32.6736 6.88453 31.5934 7.71134 30.82C7.76468 32.1802 7.83136 33.5405 7.91137 34.9007C7.83136 34.874 7.75135 34.8874 7.67133 34.9407C6.01771 35.8742 4.43077 37.2078 2.9105 38.9414C2.80382 39.0481 2.77714 39.1681 2.83049 39.3015C2.88383 39.4348 2.97718 39.5215 3.11054 39.5615C3.24389 39.6015 3.36391 39.5682 3.4706 39.4615C4.56412 38.3146 6.05772 37.0077 7.95138 35.5408L8.19142 39.4215C6.24442 40.595 4.79083 41.6219 3.83066 42.502C3.32391 41.9419 2.97718 40.8751 2.79048 39.3015C2.71047 38.4213 2.67046 37.0877 2.67046 35.3008V34.9007ZM4.67081 43.1821C5.95103 42.4353 7.15124 41.5952 8.27144 40.6617C8.37812 42.2353 8.47147 43.7956 8.55149 45.3425C7.19125 44.7291 5.89769 44.0089 4.67081 43.1821ZM32.2756 17.5777C32.6757 18.4845 33.0891 19.3646 33.5158 20.2181L33.1558 20.0981C31.7955 19.7247 30.7687 19.4713 30.0752 19.338L30.0352 19.298C30.0086 19.218 29.9952 19.1646 29.9952 19.1379C30.4753 18.8446 31.1954 18.3778 32.1556 17.7377C32.2089 17.6844 32.249 17.631 32.2756 17.5777ZM30.9554 14.6171C30.9554 14.5905 30.9554 14.5638 30.9554 14.5371C31.2488 15.2039 31.5955 16.0041 31.9956 16.9376C31.8889 16.9109 31.7822 16.9242 31.6755 16.9776C30.7154 17.4576 29.9952 17.831 29.5151 18.0978C29.1951 17.511 28.8484 16.9509 28.475 16.4175C28.9017 16.2841 29.3418 16.0307 29.7952 15.6573C30.1152 15.4173 30.4886 15.0706 30.9154 14.6171H30.9554ZM27.4748 15.0572C27.7948 14.6305 28.3416 14.0304 29.1151 13.2569C29.5418 12.8302 29.8485 12.5101 30.0352 12.2967C30.2486 12.8568 30.5153 13.4836 30.8354 14.1771C30.7554 14.1237 30.6753 14.1371 30.5953 14.2171L29.7952 14.8172C29.0484 15.3239 28.515 15.724 28.1949 16.0174L27.4748 15.0572ZM32.1556 44.7024C32.0222 44.6757 31.9156 44.7024 31.8355 44.7824C30.8754 45.5559 29.8485 46.2227 28.755 46.7828C28.595 46.8628 28.5216 46.9828 28.535 47.1428C28.5483 47.3029 28.6283 47.4295 28.775 47.5229C28.9217 47.6162 29.0751 47.6229 29.2351 47.5429C30.2219 47.0628 31.1021 46.4494 31.8756 45.7026C31.5288 47.0361 31.1554 48.2363 30.7554 49.3032C30.7287 49.3565 30.7154 49.4232 30.7154 49.5032C30.3953 49.2899 29.9085 49.0165 29.2551 48.6831C28.6016 48.3497 28.1149 48.0763 27.7948 47.8629C27.9815 47.2495 28.2349 46.3027 28.555 45.0225C29.0884 44.409 29.6885 43.8623 30.3553 43.3822C30.542 43.2488 30.862 43.0754 31.3155 42.8621C31.9022 42.5954 32.3023 42.3553 32.5157 42.142C32.5957 42.0353 32.609 41.9219 32.5557 41.8019C32.5023 41.6819 32.409 41.6219 32.2756 41.6219C31.9289 41.5952 31.5555 41.6885 31.1554 41.9019C30.8887 42.0353 30.542 42.262 30.1152 42.582L29.9152 42.702C29.5952 42.9154 29.3018 43.1555 29.0351 43.4222C29.3018 42.6487 29.5151 41.8752 29.6752 41.1018L33.0758 40.0216C32.8624 41.5952 32.5557 43.1555 32.1556 44.7024ZM33.5558 47.1428C34.3827 44.4223 34.9561 41.6485 35.2761 38.8214C35.3295 38.4213 35.2228 38.0879 34.9561 37.8212C34.6894 37.5545 34.3693 37.4745 33.9959 37.5812L24.8343 40.4617C18.4332 42.462 13.6457 43.9689 10.4718 44.9824C9.93839 41.5152 9.57833 37.5812 9.39163 33.1804C9.28495 30.5666 9.21827 26.6326 9.1916 21.3783L9.15159 18.6579C10.6985 18.9512 12.4322 19.2313 14.3525 19.498C15.4994 19.6314 17.233 19.8314 19.5534 20.0981C23.0473 20.4715 25.6611 20.7916 27.3948 21.0583C30.2753 21.5117 32.8491 22.0851 35.1161 22.7786C35.3828 22.8586 35.6229 22.8319 35.8362 22.6986C36.0496 22.5652 36.183 22.3652 36.2363 22.0985C36.2897 21.8317 36.263 21.5784 36.1563 21.3383C35.0094 19.1246 33.8626 16.5775 32.7157 13.697C41.3572 18.6579 49.1186 24.1788 55.9998 30.2599C49.3053 36.1009 41.824 41.7285 33.5558 47.1428Z" fill="white"/>
</g>
<defs>
<clipPath id="clip0_7_2385">
<rect width="57.33" height="60" fill="white" transform="matrix(1 0 0 -1 0.669922 60.5)"/>
</clipPath>
</defs>
</svg>
