<svg width="22" height="19" viewBox="0 0 22 19" fill="none" xmlns="http://www.w3.org/2000/svg">
<path d="M18.5032 3.88995C18.3971 4.89928 18.2996 5.9144 18.2422 6.91507C18.2422 7.22188 18.3631 7.51612 18.5782 7.73307C18.7934 7.95002 19.0852 8.0719 19.3895 8.0719L18.5032 3.88995ZM18.5032 3.88995L18.5069 3.85507C18.6003 2.95851 18.694 2.0592 18.8101 1.16271L18.5032 3.88995ZM9.52673 6.34018L9.5275 6.34144C10.0572 7.20647 10.5973 8.06568 11.1702 8.92339L11.1758 8.93174L11.1817 8.93987C11.2841 9.08063 11.3292 9.25648 11.3066 9.43071C11.2841 9.6043 11.1965 9.76152 11.0631 9.87043C10.9967 9.92332 10.9208 9.96237 10.8399 9.98553C10.7584 10.0088 10.6732 10.0156 10.5892 10.0056C10.5051 9.99552 10.4237 9.96876 10.3497 9.9267C10.2792 9.88669 10.2166 9.83353 10.1653 9.76987C9.60519 8.95175 9.07986 8.11737 8.55747 7.2586L8.55676 7.25743C8.5113 7.18316 8.46587 7.10896 8.42046 7.03481C7.98902 6.33028 7.56055 5.63058 7.14852 4.92173L7.13066 4.89101L7.10865 4.86311C7.04284 4.77967 6.9981 4.68107 6.97845 4.57591V4.36392C6.99887 4.24566 7.049 4.13485 7.12385 4.04212C7.15621 4.00274 7.19197 3.96642 7.23069 3.9336C7.37023 3.82662 7.54472 3.77855 7.7178 3.79866L7.71779 3.79879L7.72916 3.79985C7.80889 3.80728 7.88634 3.83168 7.95641 3.87164C8.02033 3.90809 8.07687 3.95678 8.12281 4.01516C8.47284 4.61436 8.83654 5.20967 9.19649 5.79886C9.30709 5.9799 9.41734 6.16036 9.52673 6.34018ZM20.4468 0.694485L20.4468 0.694523L20.4521 0.699552C20.5118 0.756338 20.5594 0.825393 20.5914 0.902388C20.6205 0.972375 20.6361 1.04739 20.6373 1.12334C20.5419 1.86402 20.4632 2.60714 20.3851 3.344C20.3678 3.50755 20.3505 3.67078 20.3331 3.83362L20.3331 3.83395C20.2265 4.83568 20.131 5.85927 20.0701 6.87937L20.0694 6.89189L20.0692 6.90443C20.0684 6.99356 20.0501 7.08152 20.0154 7.16325C19.9808 7.24498 19.9306 7.31872 19.868 7.38036L20.2201 7.73825L19.868 7.38036C19.8053 7.442 19.7314 7.49032 19.6507 7.52277C19.5699 7.55521 19.4837 7.5712 19.397 7.5699L19.397 7.56985H19.3895C19.2197 7.56985 19.0561 7.50188 18.9347 7.37953C18.8161 7.25995 18.7476 7.09793 18.7444 6.92747C18.8012 5.94422 18.8972 4.94411 19.0025 3.94245L19.0026 3.94199L19.0059 3.91C19.0996 3.01146 19.1927 2.11745 19.308 1.22719L19.3121 1.19558L19.3122 1.1637C19.3124 1.05771 19.3386 0.953771 19.3881 0.861129L19.5237 0.6832C19.6119 0.603281 19.7187 0.547649 19.8339 0.521402L19.8349 0.52115C19.8835 0.509964 19.933 0.503612 19.9828 0.502173C20.1554 0.503654 20.3216 0.572037 20.4468 0.694485ZM6.78984 17.1585L6.80455 17.1612L6.81938 17.1629C6.99261 17.1833 7.15247 17.2697 7.26584 17.4057C7.37368 17.5466 7.42333 17.7251 7.4031 17.9033L7.40306 17.9033L7.40241 17.9097C7.39367 17.9966 7.36791 18.0807 7.32676 18.1572L7.76882 18.3951L7.32676 18.1572C7.28561 18.2336 7.22996 18.3007 7.16324 18.3548L7.47941 18.7448L7.16323 18.3548C7.09652 18.4089 7.02004 18.4489 6.93831 18.4727C6.86057 18.4953 6.77941 18.5029 6.69905 18.4951C5.73074 18.3243 4.76797 18.1137 3.79518 17.89L3.79515 17.89C3.61199 17.8479 3.42917 17.8062 3.24667 17.7645C2.54669 17.6047 1.85123 17.446 1.1583 17.2708L1.12786 17.2631L1.0967 17.2592C0.992185 17.2463 0.892244 17.2076 0.80569 17.1464L0.643123 16.9869C0.571786 16.8899 0.525859 16.7757 0.510239 16.655C0.505651 16.606 0.505681 16.5567 0.510329 16.5078C0.53207 16.3329 0.620233 16.1743 0.754914 16.0651L0.75501 16.0652L0.76445 16.0571C0.826789 16.0039 0.899252 15.9648 0.977063 15.9419L0.835481 15.4602L0.977066 15.9419C1.04723 15.9213 1.1205 15.9143 1.19303 15.9211C1.95784 16.1147 2.7289 16.291 3.49229 16.4655C3.60172 16.4905 3.71099 16.5155 3.82006 16.5405L3.82075 16.5407C4.80082 16.7638 5.78825 16.98 6.78984 17.1585Z" fill="white" stroke="black" stroke-width="1.00411"/>
</svg>
