<svg width="20" height="20" viewBox="0 0 20 20" fill="none" xmlns="http://www.w3.org/2000/svg">
<mask id="mask0_63_9359" style="mask-type:alpha" maskUnits="userSpaceOnUse" x="0" y="0" width="20" height="20">
<rect width="19.176" height="19.176" fill="#D9D9D9"/>
</mask>
<g mask="url(#mask0_63_9359)">
<path d="M9.58767 14.3822C8.29595 14.3822 7.19066 13.9427 6.27181 13.0638C5.35296 12.1849 4.86024 11.1063 4.79366 9.82786L6.47156 10.3272C6.64468 11.0463 7.01755 11.6356 7.59016 12.095C8.16278 12.5544 8.82862 12.7842 9.58767 12.7842C10.4666 12.7842 11.219 12.4712 11.8448 11.8453C12.4707 11.2194 12.7837 10.4671 12.7837 9.58816C12.7837 8.8291 12.554 8.16327 12.0945 7.59065C11.6351 7.01804 11.0458 6.64517 10.3267 6.47205L9.82737 4.79415C11.1058 4.86073 12.1844 5.35345 13.0633 6.2723C13.9422 7.19115 14.3817 8.29644 14.3817 9.58816C14.3817 10.9198 13.9156 12.0517 12.9834 12.9839C12.0513 13.9161 10.9193 14.3822 9.58767 14.3822ZM9.58767 17.5782C8.48238 17.5782 7.44368 17.3684 6.47156 16.949C5.49944 16.5295 4.65384 15.9602 3.93473 15.2411C3.21563 14.522 2.64635 13.6764 2.22687 12.7043C1.80739 11.7321 1.59766 10.6934 1.59766 9.58816V9.22861C1.59766 9.10876 1.61097 8.9889 1.63761 8.86905L3.19566 9.34845V9.58816C3.19566 11.3726 3.81488 12.884 5.05334 14.1225C6.29179 15.3609 7.80323 15.9802 9.58767 15.9802C11.3721 15.9802 12.8835 15.3609 14.122 14.1225C15.3605 12.884 15.9797 11.3726 15.9797 9.58816C15.9797 7.80372 15.3605 6.29228 14.122 5.05382C12.8835 3.81537 11.3721 3.19615 9.58767 3.19615H9.34797L8.86857 1.63809C8.98842 1.61146 9.10827 1.59814 9.22812 1.59814H9.58767C10.693 1.59814 11.7317 1.80788 12.7038 2.22736C13.6759 2.64683 14.5215 3.21612 15.2406 3.93522C15.9597 4.65432 16.529 5.49993 16.9485 6.47205C17.3679 7.44417 17.5777 8.48287 17.5777 9.58816C17.5777 10.6934 17.3679 11.7321 16.9485 12.7043C16.529 13.6764 15.9597 14.522 15.2406 15.2411C14.5215 15.9602 13.6759 16.5295 12.7038 16.949C11.7317 17.3684 10.693 17.5782 9.58767 17.5782ZM8.40914 9.98766L4.99341 6.57193L3.99466 9.58816L1.59766 1.59814L9.58767 3.99515L6.57144 4.9939L9.98717 8.40963L8.40914 9.98766Z" fill="white"/>
</g>
</svg>
