<svg width="14" height="13" viewBox="0 0 14 13" fill="none" xmlns="http://www.w3.org/2000/svg">
<path d="M5.66408 11.284H2.19308C1.95042 11.284 1.74242 11.1973 1.56908 11.024C1.39575 10.8507 1.30908 10.6383 1.30908 10.387V7.241C1.30908 5.74166 1.61675 4.563 2.23208 3.705C2.74342 3.01166 3.53642 2.379 4.61108 1.807C4.82775 1.69433 5.05742 1.67916 5.30008 1.7615C5.54275 1.84383 5.72042 1.99333 5.83308 2.21L6.14508 2.782C6.25775 2.99866 6.27725 3.224 6.20358 3.458C6.12992 3.692 5.98475 3.86966 5.76808 3.991C5.24808 4.29433 4.87108 4.589 4.63708 4.875C4.44642 5.109 4.30775 5.34733 4.22108 5.59C4.13442 5.798 4.16908 5.98433 4.32508 6.149C4.48108 6.31366 4.68475 6.396 4.93608 6.396H5.66408C5.91542 6.396 6.12775 6.48266 6.30108 6.656C6.47442 6.82933 6.56108 7.04166 6.56108 7.293V10.387C6.56108 10.6297 6.47442 10.8398 6.30108 11.0175C6.12775 11.1952 5.91542 11.284 5.66408 11.284ZM11.7871 11.284H8.31608C8.07342 11.284 7.86325 11.1952 7.68558 11.0175C7.50792 10.8398 7.41908 10.6297 7.41908 10.387V7.241C7.41908 5.75033 7.73108 4.57166 8.35508 3.705C8.86642 3.01166 9.65942 2.379 10.7341 1.807C10.9507 1.69433 11.1804 1.67916 11.4231 1.7615C11.6657 1.84383 11.8434 1.99333 11.9561 2.21L12.2551 2.782C12.3677 2.99866 12.3872 3.22183 12.3136 3.4515C12.2399 3.68116 12.0991 3.861 11.8911 3.991C11.3797 4.28566 11.0027 4.58033 10.7601 4.875C10.5694 5.109 10.4307 5.34733 10.3441 5.59C10.2574 5.798 10.2921 5.98433 10.4481 6.149C10.6041 6.31366 10.8077 6.396 11.0591 6.396H11.7871C12.0384 6.396 12.2507 6.48266 12.4241 6.656C12.5974 6.82933 12.6841 7.04166 12.6841 7.293V10.387C12.6841 10.6297 12.5974 10.8398 12.4241 11.0175C12.2507 11.1952 12.0384 11.284 11.7871 11.284Z" fill="white"/>
</svg>
