<svg width="50" height="34" viewBox="0 0 50 34" fill="none" xmlns="http://www.w3.org/2000/svg">
<g clip-path="url(#clip0_7_2363)">
<path d="M47.6953 27.3516H44.666V5.14746C44.666 4.03027 44.2739 3.07959 43.4897 2.29541C42.7056 1.51123 41.7549 1.11914 40.6377 1.11914H8.31445C7.19727 1.11914 6.24658 1.51123 5.4624 2.29541C4.67822 3.07959 4.28613 4.03027 4.28613 5.14746V27.3516H1.25684C0.977539 27.3516 0.73584 27.4482 0.531738 27.6416C0.327637 27.835 0.225586 28.0713 0.225586 28.3506V29.3818C0.225586 30.499 0.623047 31.4497 1.41797 32.2339C2.21289 33.0181 3.16895 33.4102 4.28613 33.4102H44.666C45.7832 33.4102 46.7393 33.0181 47.5342 32.2339C48.3291 31.4497 48.7266 30.499 48.7266 29.3818V28.3506C48.7266 28.0713 48.6245 27.835 48.4204 27.6416C48.2163 27.4482 47.9746 27.3516 47.6953 27.3516ZM6.28418 5.14746C6.28418 4.58887 6.48291 4.11621 6.88037 3.72949C7.27783 3.34277 7.75586 3.14941 8.31445 3.14941H40.6377C41.1963 3.14941 41.6743 3.34277 42.0718 3.72949C42.4692 4.11621 42.668 4.58887 42.668 5.14746V27.3516H6.28418V5.14746ZM44.666 31.3799H4.28613C3.72754 31.3799 3.24951 31.1865 2.85205 30.7998C2.45459 30.4131 2.25586 29.9404 2.25586 29.3818H19.0137L19.7227 30.0908C19.8086 30.1768 19.916 30.2466 20.0449 30.3003C20.1738 30.354 20.3027 30.3809 20.4316 30.3809H28.5205C28.6494 30.3809 28.7783 30.354 28.9072 30.3003C29.0361 30.2466 29.1436 30.1768 29.2295 30.0908L29.9385 29.3818H46.6963C46.6963 29.9404 46.4976 30.4131 46.1001 30.7998C45.7026 31.1865 45.2246 31.3799 44.666 31.3799Z" fill="#F8941F"/>
</g>
<defs>
<clipPath id="clip0_7_2363">
<rect width="49.5" height="33" fill="white" transform="matrix(1 0 0 -1 0 33.4102)"/>
</clipPath>
</defs>
</svg>
