<svg width="42" height="38" viewBox="0 0 42 38" fill="none" xmlns="http://www.w3.org/2000/svg">
<path d="M41.0176 8.68457L38.7412 28.8105C38.6689 29.3646 38.5063 29.8704 38.2534 30.3281C38.0005 30.7858 37.6813 31.1712 37.2959 31.4844C37.0309 31.6771 36.7419 31.8397 36.4287 31.9722C36.1156 32.1047 35.7904 32.207 35.4531 32.2793H35.417V33.0742C35.417 34.1823 34.9954 35.1097 34.1523 35.8564C33.3092 36.6032 32.3337 36.9766 31.2256 36.9766H3.98145C3.95736 36.9766 3.93327 36.9766 3.90918 36.9766C3.88509 36.9766 3.861 36.9766 3.83691 36.9766C2.80111 36.9284 1.9279 36.543 1.21729 35.8203C0.506673 35.0977 0.151367 34.2184 0.151367 33.1826C0.151367 33.1585 0.151367 33.1405 0.151367 33.1284C0.151367 33.1164 0.151367 33.0983 0.151367 33.0742V12.8037C0.151367 11.6956 0.518717 10.7321 1.25342 9.91309C1.98812 9.09408 2.89746 8.68457 3.98145 8.68457H5.49902L6.00488 4.60156C6.07715 4.07161 6.23975 3.58382 6.49268 3.13818C6.74561 2.69255 7.06478 2.3252 7.4502 2.03613C7.76335 1.74707 8.1307 1.52425 8.55225 1.36768C8.9738 1.2111 9.41341 1.13281 9.87109 1.13281C9.96745 1.13281 10.0578 1.13884 10.1421 1.15088C10.2264 1.16292 10.3167 1.16895 10.4131 1.16895H10.377L37.5127 4.24023C38.5003 4.36068 39.3374 4.80029 40.0239 5.55908C40.7104 6.31787 41.0537 7.21517 41.0537 8.25098C41.0537 8.32324 41.0477 8.39551 41.0356 8.46777C41.0236 8.54004 41.0176 8.6123 41.0176 8.68457ZM3.98145 34.9893H31.2256C31.7796 34.9893 32.2855 34.8086 32.7432 34.4473C33.2008 34.0859 33.4297 33.6283 33.4297 33.0742V23.4629L23.6377 29.1357C23.3005 29.3285 22.9391 29.479 22.5537 29.5874C22.1683 29.6958 21.7588 29.75 21.3252 29.75C21.3011 29.75 21.2891 29.75 21.2891 29.75C21.2891 29.75 21.277 29.75 21.2529 29.75C20.6989 29.75 20.1689 29.6536 19.6631 29.4609C19.1572 29.2682 18.7116 29.0033 18.3262 28.666L12.9062 23.8965C12.6895 23.7038 12.4425 23.5532 12.1655 23.4448C11.8885 23.3364 11.5934 23.2822 11.2803 23.2822C11.0153 23.2822 10.7563 23.3244 10.5034 23.4087C10.2505 23.493 10.0277 23.6074 9.83496 23.752L2.13867 29.4248V33.0742C2.13867 33.0983 2.13867 33.1164 2.13867 33.1284C2.13867 33.1405 2.13867 33.1585 2.13867 33.1826C2.13867 33.6885 2.31331 34.116 2.6626 34.4653C3.01188 34.8146 3.42741 34.9893 3.90918 34.9893C3.93327 34.9893 3.95133 34.9893 3.96338 34.9893C3.97542 34.9893 3.98145 34.9893 3.98145 34.9893ZM3.98145 10.6719C3.42741 10.6719 2.98177 10.8887 2.64453 11.3223C2.30729 11.7559 2.13867 12.2497 2.13867 12.8037V26.9316L8.67871 22.1621C9.06413 21.8971 9.47966 21.6864 9.92529 21.5298C10.3709 21.3732 10.8346 21.2949 11.3164 21.2949C11.8704 21.2949 12.3944 21.3913 12.8882 21.584C13.382 21.7767 13.8216 22.0417 14.207 22.3789L19.6631 27.1846C19.8799 27.3773 20.1328 27.5278 20.4219 27.6362C20.7109 27.7446 21.012 27.7988 21.3252 27.7988C21.542 27.7988 21.7648 27.7627 21.9937 27.6904C22.2225 27.6182 22.4333 27.5339 22.626 27.4375H22.5898L33.4297 21.1143V12.8037C33.3815 12.2256 33.1527 11.7318 32.7432 11.3223C32.3337 10.9128 31.8398 10.696 31.2617 10.6719H31.2256H3.98145ZM37.2598 6.22754L10.1963 3.12012C10.1481 3.12012 10.112 3.12012 10.0879 3.12012C10.0638 3.12012 10.0277 3.12012 9.97949 3.12012C9.73861 3.12012 9.50977 3.15625 9.29297 3.22852C9.07617 3.30078 8.87142 3.39714 8.67871 3.51758C8.51009 3.6862 8.35954 3.87891 8.22705 4.0957C8.09456 4.3125 8.00423 4.54134 7.95605 4.78223V4.81836L7.48633 8.68457H31.2256C32.3577 8.70866 33.3273 9.11816 34.1343 9.91309C34.9412 10.708 35.3688 11.6595 35.417 12.7676V12.8037V30.3281C35.417 30.2559 35.5013 30.1956 35.6699 30.1475C35.8385 30.0993 35.971 30.027 36.0674 29.9307C36.2601 29.762 36.4167 29.5633 36.5371 29.3345C36.6576 29.1056 36.7178 28.8587 36.7178 28.5938C36.7178 28.5938 36.7178 28.5877 36.7178 28.5757C36.7178 28.5636 36.7178 28.5576 36.7178 28.5576L39.0303 8.43164V8.39551C39.0303 8.37142 39.0363 8.34131 39.0483 8.30518C39.0604 8.26904 39.0664 8.23893 39.0664 8.21484C39.0664 7.70898 38.8918 7.26335 38.5425 6.87793C38.1932 6.49251 37.7656 6.27572 37.2598 6.22754ZM20.8555 22.126C20.8555 22.126 20.8434 22.126 20.8193 22.126C20.7952 22.126 20.7832 22.126 20.7832 22.126C19.627 22.126 18.6393 21.7165 17.8203 20.8975C17.0013 20.0785 16.5918 19.1029 16.5918 17.9707C16.5918 16.8145 17.0013 15.8268 17.8203 15.0078C18.6393 14.1888 19.627 13.7793 20.7832 13.7793C20.7832 13.7793 20.7952 13.7793 20.8193 13.7793C20.8434 13.7793 20.8555 13.7793 20.8555 13.7793C20.8796 13.7793 20.8976 13.7793 20.9097 13.7793C20.9217 13.7793 20.9398 13.7793 20.9639 13.7793C22.1201 13.7793 23.1017 14.1888 23.9087 15.0078C24.7157 15.8268 25.1191 16.8145 25.1191 17.9707C25.1191 19.1029 24.7157 20.0785 23.9087 20.8975C23.1017 21.7165 22.1201 22.126 20.9639 22.126C20.9398 22.126 20.9217 22.126 20.9097 22.126C20.8976 22.126 20.8796 22.126 20.8555 22.126ZM20.8555 15.7666C20.2533 15.7666 19.7414 15.9774 19.3198 16.3989C18.8983 16.8205 18.6875 17.3444 18.6875 17.9707C18.6875 18.5729 18.8983 19.0848 19.3198 19.5063C19.7414 19.9279 20.2533 20.1387 20.8555 20.1387C21.4577 20.1387 21.9756 19.9279 22.4092 19.5063C22.8428 19.0848 23.0596 18.5729 23.0596 17.9707C23.0596 17.3444 22.8428 16.8205 22.4092 16.3989C21.9756 15.9774 21.4577 15.7666 20.8555 15.7666Z" fill="#39C0FA"/>
</svg>
