<svg width="180" height="103" viewBox="0 0 180 103" fill="none" xmlns="http://www.w3.org/2000/svg">
<g clip-path="url(#clip0_7_2810)">
<g clip-path="url(#clip1_7_2810)">
<g clip-path="url(#clip2_7_2810)">
<path d="M128.25 1.50002C128.25 2.30002 128.55 3.00002 128.85 3.00002C130.45 3.00002 162.95 8.20002 164.25 8.70002C165.05 9.00002 160.85 10.5 154.75 12.1C104.25 25.4 59.85 48.5 20.75 81.5C5.45004 94.4 -0.449956 100.7 0.950044 102.1C1.85004 103 4.35004 101.3 11.15 94.8C50.05 57.8 102.25 29 155.15 15.4C162.55 13.5 168.65 12.1 168.75 12.2C168.95 12.4 162.95 17.4 155.65 23.3C148.25 29.3 142.25 34.6 142.25 35C142.25 35.5 142.65 36.1 143.15 36.4C144.25 37.1 179.55 8.80002 178.55 8.00002C177.85 7.40002 131.45 -0.0999832 129.05 1.52588e-05C128.55 1.52588e-05 128.25 0.70002 128.25 1.50002Z" fill="#23AAF6"/>
</g>
</g>
</g>
<defs>
<clipPath id="clip0_7_2810">
<rect width="179" height="103" fill="white" transform="translate(0.25)"/>
</clipPath>
<clipPath id="clip1_7_2810">
<rect width="179" height="103" fill="white" transform="translate(0.25)"/>
</clipPath>
<clipPath id="clip2_7_2810">
<rect width="179" height="103" fill="white" transform="translate(0.25)"/>
</clipPath>
</defs>
</svg>
